# xmcd CD database file
#
# Track frame offsets:
#	150
#	12416
#	25115
#	52167
#	76080
#	98145
#	114215
#	128274
#	140225
#	155997
#	167881
#	190305
#	201689
#	215909
#	233590
#	247631
#
# Disc length: 4393 seconds
#
# Revision: 0
# Processed by: cddbd v1.4PL0 Copyright (c) Steve Scherf et al.
# Submitted via: CDex 1.50
#
DISCID=dd112710
DTITLE=Paul Weller - Under The Influence
DYEAR=2003
DGENRE=Salsa
TTITLE0=Slippin' And Slidin'
TTITLE1=God Made Me Funky
TTITLE2=Handouts In The Rain
TTITLE3=Devil's Pie
TTITLE4=Passions Of A Man
TTITLE5=Jesamine
TTITLE6=Color Him Father
TTITLE7=Ali Baba
TTITLE8=Doobie To The Head
TTITLE9=Pretty Little Baby
TTITLE10=Jesus Gonna Be There
TTITLE11=Big Black Smoke
TTITLE12=We Must Be In Love
TTITLE13=Small Axe
TTITLE14=Hit The Road Jack
TTITLE15=Ole'
EXTD=YEAR: 2003
EXTT0=
EXTT1=
EXTT2=
EXTT3=
EXTT4=
EXTT5=
EXTT6=
EXTT7=
EXTT8=
EXTT9=
EXTT10=
EXTT11=
EXTT12=
EXTT13=
EXTT14=
EXTT15=
PLAYORDER=
